<svg xmlns="http://www.w3.org/2000/svg" width="70" height="70" fill="none" viewBox="0 0 80 80">
  <g clip-path="url(#a)">
    <path fill="#E0D8E9" d="M62.5 33.055c0-7.67-5.876-13.889-13.125-13.889-3.673 0-6.994 1.597-9.374 4.17-2.382-2.573-5.703-4.17-9.376-4.17-7.249 0-13.125 6.218-13.125 13.889 0 3.888 1.51 7.403 3.942 9.924l-.192-.004L40 60.834l18.75-17.858-.193.004c2.433-2.521 3.943-6.036 3.943-9.924Z"/>
    <path stroke="#262626" stroke-linecap="round" stroke-linejoin="round" stroke-width="3" d="M7.398 10.863H8.83M35.336 16.594h.717M28.889 16.594h1.433M13.129 10.863h2.865M30.322 22.326h2.865M10.98 16.594h2.865M31.754 10.863h2.866M9.547 22.326h1.432M21.725 2.982V33.07M18.692 2.1l3.391.63 3.391-.63a35 35 0 0 1 13.603.162l3.423.721v30.088l-3.816-.71a35.004 35.004 0 0 0-12.784 0l-3.817.71-3.816-.71a35.004 35.004 0 0 0-12.784 0l-3.816.71V2.983l3.423-.72A35 35 0 0 1 18.692 2.1Z"/>
    <path stroke="#262626" stroke-width="3" d="M80 80c-2.245-8.945-10.162-15.555-19.583-15.555-9.422 0-17.339 6.61-19.584 15.556M72.407 46.945c0 6.679-5.455 12.111-12.208 12.111s-12.208-5.432-12.208-12.11c0-6.68 5.455-12.112 12.208-12.112s12.208 5.432 12.208 12.111Z"/>
  </g>
  <defs>
    <clipPath id="a">
      <path fill="#fff" d="M0 0h80v80H0z"/>
    </clipPath>
  </defs>
</svg>